<svg width="365" height="90" viewBox="0 0 365 90" fill="none" xmlns="http://www.w3.org/2000/svg">
<path d="M55.069 64.12H25.885L20.509 79H11.293L35.485 12.472H45.565L69.661 79H60.445L55.069 64.12ZM52.573 57.016L40.477 23.224L28.381 57.016H52.573ZM130.893 31.48C129.037 27.576 126.349 24.568 122.829 22.456C119.309 20.28 115.213 19.192 110.541 19.192C105.869 19.192 101.645 20.28 97.8685 22.456C94.1565 24.568 91.2125 27.64 89.0365 31.672C86.9245 35.64 85.8685 40.248 85.8685 45.496C85.8685 50.744 86.9245 55.352 89.0365 59.32C91.2125 63.288 94.1565 66.36 97.8685 68.536C101.645 70.648 105.869 71.704 110.541 71.704C117.069 71.704 122.445 69.752 126.669 65.848C130.893 61.944 133.357 56.664 134.061 50.008H107.373V42.904H143.373V49.624C142.861 55.128 141.133 60.184 138.189 64.792C135.245 69.336 131.373 72.952 126.573 75.64C121.773 78.264 116.429 79.576 110.541 79.576C104.333 79.576 98.6685 78.136 93.5485 75.256C88.4285 72.312 84.3645 68.248 81.3565 63.064C78.4125 57.88 76.9405 52.024 76.9405 45.496C76.9405 38.968 78.4125 33.112 81.3565 27.928C84.3645 22.68 88.4285 18.616 93.5485 15.736C98.6685 12.792 104.333 11.32 110.541 11.32C117.645 11.32 123.917 13.08 129.357 16.6C134.861 20.12 138.861 25.08 141.357 31.48H130.893ZM190.155 79L174.219 51.64H163.659V79H154.923V12.088H176.523C181.579 12.088 185.835 12.952 189.291 14.68C192.811 16.408 195.435 18.744 197.163 21.688C198.891 24.632 199.755 27.992 199.755 31.768C199.755 36.376 198.411 40.44 195.723 43.96C193.099 47.48 189.131 49.816 183.819 50.968L200.619 79H190.155ZM163.659 44.632H176.523C181.259 44.632 184.811 43.48 187.179 41.176C189.547 38.808 190.731 35.672 190.731 31.768C190.731 27.8 189.547 24.728 187.179 22.552C184.875 20.376 181.323 19.288 176.523 19.288H163.659V44.632ZM286.847 45.496C286.847 38.968 288.319 33.112 291.263 27.928C294.207 22.68 298.207 18.584 303.263 15.64C308.383 12.696 314.047 11.224 320.255 11.224C327.551 11.224 333.919 12.984 339.359 16.504C344.799 20.024 348.767 25.016 351.263 31.48H340.799C338.943 27.448 336.255 24.344 332.735 22.168C329.279 19.992 325.119 18.904 320.255 18.904C315.583 18.904 311.391 19.992 307.679 22.168C303.967 24.344 301.055 27.448 298.943 31.48C296.831 35.448 295.775 40.12 295.775 45.496C295.775 50.808 296.831 55.48 298.943 59.512C301.055 63.48 303.967 66.552 307.679 68.728C311.391 70.904 315.583 71.992 320.255 71.992C325.119 71.992 329.279 70.936 332.735 68.824C336.255 66.648 338.943 63.544 340.799 59.512H351.263C348.767 65.912 344.799 70.872 339.359 74.392C333.919 77.848 327.551 79.576 320.255 79.576C314.047 79.576 308.383 78.136 303.263 75.256C298.207 72.312 294.207 68.248 291.263 63.064C288.319 57.88 286.847 52.024 286.847 45.496Z" fill="black"/>
<path d="M277.952 45.0424C276.476 17.5553 263.223 13.5364 252.538 13.5351C249.838 13.5364 247.304 13.7919 245.164 13.9927C245.146 12.7426 245.195 11.4038 245.391 9.92423C245.395 9.90338 245.386 9.88513 245.384 9.86557C245.386 9.85514 245.391 9.84471 245.391 9.83429C245.391 9.37412 244.583 9 243.583 9C242.586 9 241.778 9.37412 241.778 9.83429C241.504 11.3257 241.131 12.7942 240.662 14.2286C226.565 14.3199 207.994 16.7158 205.16 44.1091C203.103 63.9899 221.226 82 241.614 82C262.001 82 279.024 65.021 277.952 45.0424ZM245.923 17.8473C246.421 17.8004 246.937 17.7522 247.467 17.7066C246.829 17.9816 246.21 18.2671 245.627 18.5539C245.585 18.3479 245.556 18.1028 245.517 17.8838L245.923 17.8473ZM239.16 18.1576C239 18.5135 238.844 18.855 238.695 19.1692C238.336 18.8212 237.957 18.4982 237.56 18.2019C238.093 18.1824 238.625 18.1693 239.16 18.1576ZM266.621 66.7821C260.288 73.9687 251.173 78.0893 241.614 78.0893C231.872 78.0893 222.195 73.4694 215.728 65.7314C210.487 59.4599 208.022 51.9344 208.788 44.5393C210.225 30.6588 215.956 24.0289 223.312 20.8886C230.44 19.4703 237.146 22.0748 237.146 22.0748C237.146 22.0748 221.902 18.0207 215.925 39.0056C223.447 26.4405 236.393 30.1387 239.798 25.5071C239.798 34.4614 245.872 30.1166 248.942 34.1498C252.891 39.3354 254.336 48.6273 258.879 50.4575C254.404 40.1645 261.731 40.566 251.437 26.752C256.86 30.3616 259.671 26.709 267.076 29.9614C260.741 18.8667 250.606 22.0748 250.606 22.0748C250.606 22.0748 254.731 18.0481 259.103 18.1602C266.491 20.0087 273.286 26.228 274.309 45.268C274.725 53.0438 271.995 60.684 266.621 66.7821Z" fill="black"/>
</svg>
