<svg width="73" height="73" viewBox="0 0 73 73" fill="none" xmlns="http://www.w3.org/2000/svg">
<path d="M72.952 36.0424C71.4762 8.55534 58.2229 4.53643 47.5381 4.53513C44.8383 4.53643 42.304 4.79193 40.1638 4.99268C40.1456 3.74255 40.1955 2.40379 40.3914 0.924232C40.395 0.903375 40.3865 0.885125 40.3841 0.865571C40.3865 0.855143 40.3914 0.844714 40.3914 0.834286C40.3914 0.374125 39.5835 0 38.5834 0C37.5857 0 36.7778 0.374125 36.7778 0.834286C36.5042 2.32569 36.1313 3.79422 35.6621 5.22862C21.5645 5.31987 2.99445 7.71584 0.159596 35.1091C-1.89658 54.9899 16.2258 73 36.6136 73C57.0014 73 74.0239 56.021 72.952 36.0424ZM40.923 8.84734C41.4207 8.80041 41.9365 8.75218 42.467 8.70655C41.8295 8.98161 41.2102 9.26709 40.6274 9.55388C40.5848 9.34791 40.5556 9.10284 40.5167 8.88384L40.923 8.84734ZM34.1596 9.15759C34.0002 9.51346 33.8444 9.855 33.6948 10.1692C33.336 9.82123 32.9568 9.49816 32.5596 9.20191C33.0925 9.18236 33.6254 9.16932 34.1596 9.15759ZM61.6211 57.7821C55.2883 64.9687 46.173 69.0893 36.6136 69.0893C26.8717 69.0893 17.1955 64.4694 10.7276 56.7314C5.48741 50.4599 3.02243 42.9344 3.78772 35.5393C5.22461 21.6588 10.9564 15.0289 18.3124 11.8886C25.4396 10.4703 32.146 13.0748 32.146 13.0748C32.146 13.0748 16.9022 9.02071 10.9247 30.0056C18.4474 17.4405 31.3928 21.1387 34.7983 16.5071C34.7983 25.4614 40.8719 21.1166 43.9416 25.1498C47.8909 30.3354 49.3363 39.6273 53.8794 41.4575C49.4045 31.1645 56.7313 31.566 46.437 17.752C51.8597 21.3616 54.6715 17.709 62.0761 20.9614C55.7409 9.86673 45.606 13.0748 45.606 13.0748C45.606 13.0748 49.7305 9.04809 54.1033 9.1602C61.4909 11.0087 68.286 17.228 69.3093 36.268C69.7254 44.0438 66.9952 51.684 61.6211 57.7821Z" fill="black"/>
</svg>
